<?xml version="1.0" encoding="UTF-8"?>
<svg id="Layer_1" data-name="Layer 1" xmlns="http://www.w3.org/2000/svg" viewBox="0 0 251 502.53">
  <defs>
    <style>
      .cls-1 {
        fill: #dc0073;
      }

      .cls-2 {
        fill: #daa520;
      }
    </style>
  </defs>
  <path class="cls-1" d="M222.4,199.03c-9.31-2.58-43.95-17.41-51.43-24-7.48-6.59-10.29-27.3-13.51-36.97-.32-.96-1.16-2.47-.36-3.36,8.43-3.98,17.29-8.87,26.28-11.39,31.26-8.78,54.15,18.43,67.61,44.26"/>
  <path class="cls-1" d="M76.26,133.03c-7.71,5.82-16.36,13.07-26.14,15s-36.23-1.81-45.86-5.14c-.96-.33-3.24-5.93-3.46-7.11,1.97-9.11-3-30.94.46-39.61,12.04-30.16,65.17-25.59,93.86-20.57"/>
  <path class="cls-1" d="M166.2,73.5c-9.21-2.92-19.01-6.29-26.24-13.15-7.23-6.86-29.56-21.67-32.41-31.45-.29-.97,27.35-25.67,36.43-27.86,31.57-7.62,57.39,28.52,69.89,54.83l-19.54,9.73-28.12,7.91Z"/>
  <path class="cls-2" d="M59.12,267.28c-7.81,1.22-33.76,12.6-38.75,18.63-16.03,19.38-11.46,45.57,4.46,63.4,1.24,1.39,10.29,9.8,11.01,9.97,2.04.47,4.89-2.29,6.14-4.35,0,0-16.29-14.14-14.14-45.86s31.29-41.79,31.29-41.79Z"/>
  <path d="M108.59,251.89c1.42-.88,1.38-1.99,1.55-3.44,1.25-10.69.64-31.83,0-43.03-1.68-28.84-12.76-59.78-36.62-77.27-7.71,5.82-16.13,11.87-25.91,13.8s-29.52-.24-39.15-3.57c-.96-.33-2.67-.58-2.89-1.76,1.97-9.11,3.48-19.12,6.94-27.79,12.04-30.16,45.5-34.78,74.19-29.76,2.24,3.23-4.48,37.28-8.61,42.44,40.68,28.59,44,83.3,40.11,128.81.43,1.83,9.21,3.96,9.92-1.87,2.32-19.18-.96-40.7-1.09-59.92-.21-32.17-1.42-62.6,8.32-93.62,1.51-4.81,11.73-26.77,11.7-28.3-.03-1.35-11.46-9.29-13.95-11.97-2.65-2.85-18.22-24.69-18.06-26.87,19.3-13.2,39.54-26.58,63.47-15.55,15.34,7.07,24.53,22.52,34.33,35.47-16.59,13.39-33.96,27.04-56.81,21.89-31.98,55.32-16.02,121.6-18.96,182.32,1.94-.03,5.09.66,5.85-1.64-1.24-30.74,5.05-64.62,31.15-83.81l-11.01-34.35c18.03-4.7,39.12-11,56.53-1.2,17.41,9.8,23.32,30.18,28.36,47.45-20.55,10.04-42.67,15.54-62.45.62-2.05-1.54-5.19-6.72-7.5-5.53s-10.56,10.97-12.4,13.63c-12.9,18.68-14.61,42.78-14.57,64.82h26.95c-3.27,13.8-7.43,26.93-5.98,41.43,2.43,24.33,37.93,37.74,45.85,65.97,11.01,39.19-12.07,68.23-28.42,100.28-8.79,17.23-8.58,26.04,1.52,42.96h-113.8c3.08-6.52,7.4-13.04,7.98-20.48,1.23-15.8-17.35-37.73-24.48-52.39-8.38-17.24-15.05-37.59-12.51-56.86-38.31-16.69-57.5-69.04-27.91-102.47,5.85-6.61,22.75-18.45,31.47-18.45h56.9-.01ZM153.75,16.45c-5.73.9-21.14,8.41-22.5,14.46-1.4,6.24,3,13.06,6.8,17.74,12.47,15.33,32.32,19.1,49.21,8.33,12.11-7.72,11.58-14.12,3.5-25.12-8.46-11.51-22.77-17.65-37.02-15.41h0ZM52.95,86.37c-13.85,1.76-27.07,10.46-32.19,23.72-5.73,14.86-4.18,23.59,12.98,24.93,17.42,1.36,38.3-9.15,41.17-27.68,2.92-18.81-3.6-23.31-21.96-20.97ZM193.73,133.35c-18.98,1.76-22.17,10.76-13.96,27.36,7.14,14.42,22.42,22.21,38.37,20.02,19.31-2.65,18.94-14.76,10.91-29.37-7.5-13.63-19.83-19.45-35.31-18.01h0ZM56.92,268.1c-7.81,1.22-17.69,8.23-22.68,14.26-16.03,19.38-11.46,45.57,4.46,63.4,1.24,1.39,10.29,9.8,11.01,9.97,2.04.47,4.42-7.22,5.67-9.28,8.59-14.22,20.33-21.62,30.15-33.75,20.63-25.48,1.53-49.29-28.61-44.6Z"/>
  <path d="M180.63,28.53c15.45,15.71-12.33,39.2-25.07,19.59-10.75-16.55,11.94-32.93,25.07-19.59Z"/>
  <path d="M197.29,145.39c15.41-14.48,35.94,9.46,21.12,22.63-15.07,13.39-35-9.6-21.12-22.63Z"/>
  <path d="M41.94,95.34c25.19-4.63,25.83,34.21.85,30.63-16.57-2.38-16.74-27.71-.85-30.63Z"/>
  <path class="cls-2" d="M45.95,98.35c4.47-.82,4.58,6.07.15,5.43-2.94-.42-2.97-4.92-.15-5.43Z"/>
  <path class="cls-2" d="M48.44,104.43c2.04-.37,2.09,2.77.07,2.48-1.34-.19-1.36-2.24-.07-2.48Z"/>
  <path class="cls-2" d="M182.27,34.02c2.04,4.06-4.55,6.1-5.18,1.66-.42-2.94,3.89-4.23,5.18-1.66Z"/>
  <path class="cls-2" d="M177.12,38.11c.93,1.85-2.08,2.78-2.36.76-.19-1.34,1.78-1.93,2.36-.76Z"/>
  <path class="cls-2" d="M220.72,155.9c2.04,4.06-4.55,6.1-5.18,1.66-.42-2.94,3.89-4.23,5.18-1.66Z"/>
  <path class="cls-2" d="M215.58,159.99c.93,1.85-2.08,2.78-2.36.76-.19-1.34,1.78-1.93,2.36-.76Z"/>
  <polygon class="cls-2" points="79.48 251.43 177.98 251.89 176.55 256.36 79.48 251.43"/>
</svg>